<svg xmlns="http://www.w3.org/2000/svg" xmlns:xlink="http://www.w3.org/1999/xlink" version="1.1" viewBox="0 0 1458 234" xml:space="preserve">
  <title>Gradescope Logo</title>
  <path fill="#1ca0a0" d="M265.1,53.1c32.1,0,39.7,20.5,39.7,20.5h0.5v-4.5c0-8.6,3.8-13.1,13.6-13.1h16.7v14h-9.8c-3.3,0-5.2,1.7-5.2,5.2v97.6 c0,38.1-28.1,52.8-57.6,52.8c-13.6,0-27.4-3.6-39-9.5l6.2-13.6c0,0,14.8,8.3,32.4,8.3c23.3,0,41.9-10.9,41.9-37.6v-10.5 c0-4.5,0.2-8.6,0.2-8.6h-0.5c-7.1,13.1-19,20.7-37.6,20.7c-32.1,0-53.3-25.5-53.3-61.4C213.2,77.5,233,53,265.1,53.1L265.1,53.1z M304.6,113.5c0-35-16.7-45.7-37.8-45.7c-23.3,0-36.9,16.9-36.9,45.5s15.5,47.1,39,47.1C287.9,160.4,304.6,148.8,304.6,113.5 L304.6,113.5z M361.7,75.2c0-3.3-1.9-5.2-5.2-5.2h-10v-14h16.7c10,0,14.5,4,14.5,13.6v8.1c0,5-0.5,9-0.5,9h0.5 c5.7-18.1,19-31.9,37.8-31.9c3.3,0,6.4,0.7,6.4,0.7v15.9c0,0-2.9-0.5-6-0.5c-16.9,0-29.5,13.3-34.7,30.9c-2.4,7.6-3.3,15.7-3.3,23.3 v50.5h-16.2L361.7,75.2L361.7,75.2z M502.1,101.8h6.7v-1.4c0-25-9-33.8-30.9-33.8c-6,0-23.3,1.7-23.3,10.5v7.6h-15.5V73.4 c0-16.7,28.6-20.2,39-20.2c37.8,0,46.9,20.2,46.9,45.9v57.4c0,3.6,1.9,5.2,5.2,5.2h10v14h-16.4c-10.2,0-14.3-4.5-14.3-14.3 c0-5.2,0.2-8.8,0.2-8.8h-0.5c0.2,0-9.8,25.9-39.7,25.9c-20,0-40.7-11.7-40.7-35.5C428.8,103.2,481.4,101.8,502.1,101.8L502.1,101.8z M472.1,164.8c22.8,0,36.7-23.8,36.7-44.5v-5.5h-6.9c-18.8,0-56.4,0.5-56.4,27.4C445.5,153.2,454.3,164.8,472.1,164.8z M609,53.1 c29,0,39,22.4,39,22.4h0.5c0,0-0.5-4-0.5-9V27.7c0-3.3-1.9-5.2-5.2-5.2h-10v-14h16.9c10.2,0,14.5,4.3,14.5,14.5v133.5 c0,3.6,1.9,5.2,5.2,5.2h10v14h-16.7c-10,0-14.3-4.5-14.3-13.3c0-4.5,0.5-7.6,0.5-7.6h-0.5c0,0-9.8,23.8-41.2,23.8 c-32.1,0-52.1-25.7-52.1-62.8C555.2,77.8,577.6,53,609,53.1L609,53.1z M648.5,115.7c0-24.3-12.4-48.1-38.1-48.1 c-21.2,0-38.6,17.9-38.6,48.1c0,29.5,15.5,48.3,37.8,48.3C629.7,164,648.5,149.8,648.5,115.7L648.5,115.7z M753.7,53.1 c33.1,0,50.2,25.5,50.2,55.2c0,2.9-0.5,8.1-0.5,8.1h-91.9c0.5,30.2,21.7,47.6,46.4,47.6c21.9,0,35.9-14.8,35.9-14.8l7.9,12.1 c0,0-17.4,17.1-44.5,17.1c-35.5,0-62.6-25.7-62.6-62.6C694.7,76.7,721.6,53.1,753.7,53.1L753.7,53.1z M787.3,103.5 c-1-24.8-16.2-36.9-33.8-36.9c-19.8,0-37.1,12.9-41.2,36.9H787.3z M831.8,146.4c0,0,13.3,18.1,36.9,18.1c13.3,0,25.2-6.4,25.2-19 c0-26.2-67.1-21.4-67.1-60c0-21.7,18.6-32.4,42.6-32.4c12.1,0,36.4,4.8,36.4,21.7V85h-15.2v-5.7c0-8.8-12.9-12.1-20.7-12.1 c-16.7,0-26.7,5.7-26.7,17.4c0,26.9,67.1,20.7,67.1,60.5c0,20-18.1,33.6-41.9,33.6c-31.2,0-45.9-20.9-45.9-20.9L831.8,146.4 L831.8,146.4z M992.9,53.1c13.6,0,42.6,5.7,42.6,25.5v10.7h-15.3v-6.9c0-10-17.4-14.8-27.4-14.8c-25.7,0-46.4,19.3-46.4,48.3 c0,29.5,21.7,47.8,46.9,47.8c24.5,0,38.6-16.9,38.6-16.9l7.6,12.1c0,0-16.2,19.5-46.9,19.5c-35.7,0-62.8-25.5-62.8-62.6 C929.8,79.3,957.2,53.1,992.9,53.1L992.9,53.1z M1118.5,53.1c35,0,63.3,26.7,63.3,62.1c0,36.2-28.3,63.3-63.1,63.3 c-35,0-63.3-27.1-63.3-63.3C1055.5,79.8,1083.8,53.1,1118.5,53.1z M1118.8,164c25.5,0,46.4-20.9,46.4-48.8 c0-27.1-20.9-47.4-46.4-47.4c-25.7,0-46.6,20.2-46.6,47.4C1072.1,143,1093.1,164,1118.8,164z M1212.1,75.2c0-3.3-1.9-5.2-5.2-5.2 h-10v-14h16.4c10.2,0,14.3,4.3,14.3,12.6c0,4.8-0.2,8.1-0.2,8.1h0.5c0,0,9.5-23.6,41.2-23.6c32.1,0,52.1,25.7,52.1,62.8 c0,37.8-22.6,62.6-53.6,62.6c-29.3,0-39.3-22.6-39.3-22.6h-0.5c0,0,0.5,4.3,0.5,10.5v56.9h-16.2V75.2L1212.1,75.2z M1265.9,164.2 c21.2,0,38.6-17.9,38.6-48.3c0-29.3-15.5-48.1-37.8-48.1c-20,0-38.8,14.3-38.8,48.3C1227.8,140.1,1240.9,164.2,1265.9,164.2 L1265.9,164.2z M1399.6,53.1c33.1,0,50.2,25.5,50.2,55.2c0,2.9-0.5,8.1-0.5,8.1h-91.9c0.5,30.2,21.7,47.6,46.4,47.6 c21.9,0,35.9-14.8,35.9-14.8l7.9,12.1c0,0-17.4,17.1-44.5,17.1c-35.5,0-62.6-25.7-62.6-62.6C1340.6,76.7,1367.5,53.1,1399.6,53.1 L1399.6,53.1z M1433.2,103.5c-1-24.8-16.2-36.9-33.8-36.9c-19.8,0-37.1,12.9-41.2,36.9H1433.2z M8.2,105.7h33v59h-33V105.7z M49.2,71.7h33v93h-33V71.7z M90.2,24.7h33v140h-33V24.7z M132.2,50.7h33v114h-33V50.7z"></path>
</svg>